<?xml version="1.0" encoding="UTF-8"?>
<svg id="Layer_2" xmlns="http://www.w3.org/2000/svg" version="1.1" viewBox="0 0 595.3 841.9">
  <!-- Generator: Adobe Illustrator 30.2.1, SVG Export Plug-In . SVG Version: 2.1.1 Build 1)  -->
  <defs>
    <style>
      .st0 {
        fill: none;
        stroke: #555;
        stroke-linecap: round;
        stroke-miterlimit: 10;
        stroke-width: 35px;
      }
    </style>
  </defs>
  <path class="st0" d="M34.6,552.5c40.9,0,85.6,0,126.6,0,12.2-.6,26.3.5,36.4-9.9,11.4-12.5,11.4-39.6,12.5-60.3,1.2-20.9,2.3-45.7,16.3-55,9.7-6.2,21.4-5.8,32.2-6.2,24-.2,56.5.1,80-.2,10.9-.5,22.8-.1,32.3-7.9,13.1-11.1,13.3-39,14.5-60.5,1.1-22.6,2.4-50,18.5-58,8.1-4.3,17.9-4.6,27-4.9,41.1-.3,88.2,0,129.7-.1"/>
</svg>